# xmcd
#
# Track frame offsets:
#	183
#	6560
#	83370
#	134505
#	181298
#
# Disc length: 2502 seconds
#
# Revision: 54
# Processed by: cddbd v1.5.2PL0 Copyright (c) Steve Scherf et al.
# Submitted via: Jack! The Knife 17 Overdose
#
DISCID=3709c405
DTITLE=Pink Floyd - Animals
DYEAR=1977
DGENRE=Rock
TTITLE0=Pigs On The Wing (Part One)
TTITLE1=Dogs
TTITLE2=Pigs (Three Different Ones)
TTITLE3=Sheep
TTITLE4=Pigs On The Wing (Part Two)
EXTD=Pink Floyd
EXTT0=Roger Waters
EXTT1=Waters, Gilmour
EXTT2=Roger Waters
EXTT3=Roger Waters
EXTT4=Roger Waters
PLAYORDER=
